<svg xmlns="http://www.w3.org/2000/svg" data-name="Layer 1" viewBox="0 0 10 12.5" x="0px" y="0px"><title>KAMASUTRA</title><path d="M3.281,3.20554a.87729.87729,0,0,1-.15921.1244.54847.54847,0,0,0-.13408.14933,1.71671,1.71671,0,0,0-.17658.40543,2.41739,2.41739,0,0,0-.09913.89293.99481.99481,0,0,1-.03831.44462c-.00782.0192.01858.03995.03428.0245a.35366.35366,0,0,0,.09437-.1659.752.752,0,0,0,.00947-.20236,4.02446,4.02446,0,0,1-.01-.43581,2.25027,2.25027,0,0,1,.07552-.4548,1.99248,1.99248,0,0,1,.16017-.41733.81747.81747,0,0,1,.14231-.18631.49192.49192,0,0,0,.12529-.166A.01379.01379,0,0,0,3.281,3.20554Z"/><path d="M2.77566,5.29493c-.16166.07629-.21816.26051-.3143.39715a.95649.95649,0,0,1-.39655.31767,1.10746,1.10746,0,0,1-.13874.051.72993.72993,0,0,1-.14788.04013c-.01831.00117-.01336.0285.0044.02785.04479-.00165.08885.00724.13415.003A.67517.67517,0,0,0,2.05056,6.103a.92268.92268,0,0,0,.23979-.11467,1.04636,1.04636,0,0,0,.34492-.40475.66518.66518,0,0,1,.17184-.23749A.03043.03043,0,0,0,2.77566,5.29493Z"/><path d="M3.85262,5.66019a3.03205,3.03205,0,0,1-.287-.392,2.998,2.998,0,0,1-.35428-.89736c-.01975-.08819-.0382-.17647-.05252-.26573-.01474-.09188-.03168-.18511-.0386-.27785-.001-.01288-.02163-.01209-.02247.00064a2.4254,2.4254,0,0,0-.01025.24288,2.47475,2.47475,0,0,0,.021.24781,2.37731,2.37731,0,0,0,.11945.471,2.8855,2.8855,0,0,0,.32133.64167,1.18931,1.18931,0,0,0-.19964-.07128,1.41915,1.41915,0,0,0-.44925-.05474c-.01434.00078-.0146.02184-.00264.02643.13545.05191.27954.07711.4182.1189A3.68176,3.68176,0,0,1,3.6635,5.59q.02111.02725.04283.054c.05591.06857.11482.13465.17.20387.02674.03357.05631.06574.08033.10136a.50433.50433,0,0,1,.05974.132.02074.02074,0,0,0,.04094-.00647A.73341.73341,0,0,0,3.85262,5.66019Z"/><path d="M3.94185,6.39533c-.024-.017-.04527-.03694-.07016-.05307-.0216-.014-.04439-.02668-.06678-.03935-.04926-.02787-.1-.0532-.15071-.07833-.09653-.04786-.19173-.09837-.28443-.15331a2.80824,2.80824,0,0,1-.26722-.1795c-.04389-.03335-.08572-.06925-.129-.10332-.02-.01575-.04072-.03078-.06118-.046a.73456.73456,0,0,1-.07753-.05408.01226.01226,0,0,0-.019.01552c.01793.02446.02753.053.04492.078a.749.749,0,0,0,.04674.06134l.012.01347a.54939.54939,0,0,1-.07583.07388.9969.9969,0,0,1-.13322.06847,1.40143,1.40143,0,0,0-.16237.09176,1.74855,1.74855,0,0,0-.15064.12178c-.00973.00811.00042.02667.01215.01976a1.16623,1.16623,0,0,1,.11027-.05545.90752.90752,0,0,1-.01994.09786c-.00613.01687-.01567.03208-.03522.03209l-.011-.00138a.79228.79228,0,0,0-.076-.04331.40273.40273,0,0,0-.23668-.04.01222.01222,0,0,0-.01057.01217l-.00876-.001a.13271.13271,0,0,0-.09083.0563l-.00745.01161A.85914.85914,0,0,0,1.904,6.27436a.10777.10777,0,0,1-.06459-.04025.25978.25978,0,0,0-.05688-.06433.01636.01636,0,0,0-.02524.01567.19488.19488,0,0,0,.09346.15031.95919.95919,0,0,0,.145.04193l-.003.02026a1.71757,1.71757,0,0,1-.004.17825.9757.9757,0,0,1-.06216.14594.63087.63087,0,0,0-.03585.15946.23093.23093,0,0,0,.00761.14853c.02683.04078.07142.05.11259.06939a.36359.36359,0,0,0,.08064.02759.31682.31682,0,0,0,.08506.00057c.03243-.00158.03254-.049.00594-.05938a.484.484,0,0,0-.06408-.02546A.60046.60046,0,0,0,2.05,7.03043a.23539.23539,0,0,1-.06386-.01285c-.02127-.00878-.01578-.02342-.01441-.0436a.68787.68787,0,0,1,.0549-.25835.5199.5199,0,0,0,.04742-.11814.49942.49942,0,0,0,.00263-.13805c-.00431-.06006-.0133-.165.05274-.19968a.01448.01448,0,0,0,.00762-.013l.00464.00113a.45669.45669,0,0,1,.22986.10545c.07073.0498.13765.10528.21184.15a1.46043,1.46043,0,0,0,.5282.18175c.01909.00315.02231-.02337.00714-.03079a4.94356,4.94356,0,0,1-.52189-.2524c-.02256-.01455-.04473-.02984-.06689-.04516l.00068-.00056c.061-.05352.037-.12892.04163-.19879l-.00008-.00425.02208-.0103c.05329-.0253.10723-.04892.16155-.07178a.4309.4309,0,0,0,.01255.04487.70907.70907,0,0,0,.053.12343,1.72357,1.72357,0,0,0,.14593.22107c.05483.07185.11259.14136.16944.2116.05552.0686.10668.1398.15887.21087a1.43865,1.43865,0,0,1,.15633.25308.01675.01675,0,0,0,.03172-.00935.85511.85511,0,0,0-.08183-.24706,1.51693,1.51693,0,0,0-.149-.21985c-.10979-.14023-.22936-.27309-.32649-.42286-.02574-.0397-.0489-.08093-.07147-.12248-.01222-.0225-.02362-.04535-.03708-.06716L2.81655,6.0451a.31508.31508,0,0,0,.16271-.13c.01628.01451.03293.0286.04964.04245a2.2723,2.2723,0,0,0,.27732.19382c.09654.05832.19635.11113.29724.16148.05019.025.10092.049.15315.06954.02589.01018.05223.02028.07883.02844.029.00889.0586.01235.08771.01987C3.94412,6.43611,3.96178,6.4094,3.94185,6.39533Z"/><path d="M3.83492,7.26772a.87189.87189,0,0,1-.18539.01471,1.2581,1.2581,0,0,1-.18442-.02757,1.64106,1.64106,0,0,1-.3665-.1056A2.83675,2.83675,0,0,1,2.58024,6.767a.59929.59929,0,0,0-.31961-.15312.01.01,0,0,0-.00668.01786c.01838.01526.03723.03.05627.04442a.16978.16978,0,0,0-.05719.05336c-.02329.03406-.03761.0738-.058.10953-.01131.01978-.0238.03872-.03666.05751a.43293.43293,0,0,1-.04222.06251c-.0109.01094.00356.02966.01552.019.01693-.01514.03769-.02481.05482-.03995a.50975.50975,0,0,0,.04044-.04164.90127.90127,0,0,0,.07662-.10417c.0243-.03625.0443-.05529.08816-.04836a.06662.06662,0,0,0,.012.00078c.0397.02858.07941.05723.11779.08763.08787.06959.1693.14667.2561.21749a1.42015,1.42015,0,0,0,.27862.18435,1.78943,1.78943,0,0,0,.3815.11594.543.543,0,0,0,.426-.01831C3.89444,7.31088,3.86861,7.26225,3.83492,7.26772Z"/><path d="M4.0188,6.84263a.94458.94458,0,0,0-.09992-.20246,1.29181,1.29181,0,0,0-.1337-.20311c-.01137-.01242-.038-.00456-.03294.01476a1.11191,1.11191,0,0,0,.08249.19176c.02994.06241.05979.12533.08509.18979a.52957.52957,0,0,1,.04012.18494.43643.43643,0,0,1-.02437.1839c-.00492.01116.01117.02352.02011.01438a.30357.30357,0,0,0,.0877-.16244A.4485.4485,0,0,0,4.0188,6.84263Z"/><path d="M4.147,6.39276a.49917.49917,0,0,0-.02643-.12885c-.01652-.046-.04384-.08606-.06214-.131-.00556-.01365-.02442-.00429-.02039.009a.54922.54922,0,0,1,.01344.133c.0018.04188.006.08352.009.12531.00608.08378.00694.16873.00865.25272a.021.021,0,0,0,.04039.00937A.58209.58209,0,0,0,4.147,6.39276Z"/><path d="M4.60474,6.1163a.50461.50461,0,0,0-.10479-.09278c-.038-.02988-.07312-.06516-.11364-.09123l-.002-.00107c-.0276-.04853-.05751-.09564-.08381-.145-.00571-.01072-.023-.0032-.01736.00769a1.05017,1.05017,0,0,1,.07314.20966c.019.06917.03638.13892.0532.20866.00387.016.00681.03236.011.04831.00477.01832.01457.035.0186.05344a.11782.11782,0,0,1-.02289.08557.29755.29755,0,0,0-.06243.14572c-.00091.02248.03308.03329.04039.00937a.946.946,0,0,1,.089-.1463.28785.28785,0,0,0,.0115-.20332q-.01312-.051-.03063-.10022a.1706.1706,0,0,0,.13462.02753A.01.01,0,0,0,4.60474,6.1163Z"/><path d="M4.24348,6.29914c-.00286-.00955-.01778-.00608-.01848.003-.009.11745-.02253.23407-.03754.35075a.019.019,0,0,0,.03648.00846.46593.46593,0,0,0,.0418-.18459A.58376.58376,0,0,0,4.24348,6.29914Z"/><path d="M4.348,6.30679a.01442.01442,0,0,0-.02644.0008c-.01182.04571-.01859.093-.02825.13923-.00412.01969.02637.03032.03653.01366A.17222.17222,0,0,0,4.348,6.30679Z"/><path d="M4.866,6.516a.688.688,0,0,1-.03973-.10446.15056.15056,0,0,1,.01379-.08264c.00608-.01376-.00963-.025-.02188-.02059-.05768.02088-.06113.0903-.05348.14231.00558.038.02049.07384.02737.11147.00222.01213.00744.03238.00059.04373-.0084.01393-.02638.00951-.042.0094-.08143-.00056-.16338-.00366-.24467.00194a.3651.3651,0,0,0-.096.01475.21908.21908,0,0,0-.07522.05191c-.01025.00959.00356.02663.01389.017.028-.02623.07421-.0192.10975-.01614.04038.00348.08051.00763.121.00925.04125.00165.0826.0018.12387.00261a.294.294,0,0,0,.11722-.00668C4.88912,6.66051,4.88534,6.57533,4.866,6.516Z"/><path d="M5.26182,7.67816A.98381.98381,0,0,0,5.19448,7.588a.57754.57754,0,0,1-.0561-.10463A2.21787,2.21787,0,0,1,5.058,7.221a1.48766,1.48766,0,0,0-.09724-.24582A.58092.58092,0,0,0,4.89138,6.867c-.03016-.0369-.06718-.06546-.09834-.10085-.00761-.00864-.02464.00025-.0182.01119A.43079.43079,0,0,1,4.805,6.844c-.03588-.0067-.07573-.00648-.10452-.011A.62878.62878,0,0,1,4.577,6.8c-.02059-.00774-.04085-.01639-.061-.02513-.01795-.00777-.04065-.01224-.05744-.0212-.01082-.00577-.025.006-.01582.017a.44154.44154,0,0,0,.04192.05194.33656.33656,0,0,0,.05831.0419.48341.48341,0,0,0,.127.05152c.04122.01.085.00787.12554.01858a.52224.52224,0,0,0,.05509.02164c.01106.0241.02252.048.034.072a1.627,1.627,0,0,1,.09736.26059A1.2247,1.2247,0,0,0,5.0697,7.548c.03455.06319.09237.15045.17093.15941A.02106.02106,0,0,0,5.26182,7.67816Z"/><path d="M6.43553,7.16752a.02211.02211,0,0,0-.04187.01235.22952.22952,0,0,1-.12082.20464,1.08411,1.08411,0,0,1-.26871.09172q-.15364.04265-.30577.09036c-.05085.016-.10132.0326-.15161.05025l-.0814.02884c-.03013.01071-.05913.02724-.08985.03587-.0127.00357-.00981.024.00325.02057.03-.00781.06171-.00832.09226-.01381s.06115-.01152.09169-.01742c.06121-.01181.12193-.0252.18271-.039.11963-.02721.23823-.05838.35685-.08966a.61645.61645,0,0,0,.27432-.122.248.248,0,0,0,.074-.12307A.17957.17957,0,0,0,6.43553,7.16752Z"/><path d="M6.03688,7.05942a1.09544,1.09544,0,0,0-.34315.13134c-.05415.026-.10875.0523-.16049.08286a.69669.69669,0,0,0-.106.071c-.01715-.03106-.03956-.06-.05867-.08926q-.08259-.12655-.15432-.26t-.13431-.271c-.01994-.044-.03882-.08849-.05905-.13237a1.20888,1.20888,0,0,1-.06872-.14076c-.00349-.01121-.02015-.0037-.01669.00739.01521.0488.01594.10047.02929.14992.01228.04549.02761.09.04385.13418a2.56,2.56,0,0,0,.115.26634q.06517.12969.14208.25283c.02437.03889.04977.077.07552.115a.42313.42313,0,0,1,.0348.05682c.00945.02026.01135.04182.01949.06229a.02565.02565,0,0,0,.04383.00438.11062.11062,0,0,0,.0086-.108.751.751,0,0,0,.11857-.04356c.05723-.02428.11307-.0524.16919-.07915a1.40756,1.40756,0,0,0,.31984-.16858A.02387.02387,0,0,0,6.03688,7.05942Z"/><path d="M5.85377,6.43843a.32654.32654,0,0,0-.19913.03459.28321.28321,0,0,0-.12762.17034c-.03818.157.079.34852.25408.3166a.0246.0246,0,0,0,.0047-.047.22627.22627,0,0,1-.16227-.26038.23437.23437,0,0,1,.08474-.114.34507.34507,0,0,1,.1461-.07913A.01064.01064,0,0,0,5.85377,6.43843Z"/><path d="M6.30346,6.72282C6.276,6.69162,6.2544,6.654,6.22866,6.621a.52135.52135,0,0,1-.06472-.10973c-.03514-.07878-.04758-.16456-.08071-.24356a.19459.19459,0,0,0-.214-.1219.24662.24662,0,0,0-.19633.13145c-.00519.01011.00985.01994.0178.01272a.26.26,0,0,1,.22224-.06068c.08336.01739.09595.09742.11564.16814a.90971.90971,0,0,0,.08379.21372.3948.3948,0,0,0,.0653.08967.23813.23813,0,0,0,.103.05393C6.29884,6.76025,6.31761,6.73891,6.30346,6.72282Z"/><path d="M6.65609,6.888c-.02057-.02626-.03924-.05764-.059-.08544a.492.492,0,0,1-.05351-.10386.45515.45515,0,0,1-.03552-.12753.16344.16344,0,0,1,.03436-.12493.01194.01194,0,0,0-.01234-.02007.13432.13432,0,0,0-.08756.09449l-.0011.00472c-.00783.018-.01455.03658-.02058.05454-.01388.04133-.016.08611-.032.12656a.13761.13761,0,0,1-.0996.07927.33714.33714,0,0,1-.0818.00926.464.464,0,0,1-.08873-.001c-.013-.00229-.0143.0172-.002.02.03376.00765.0639.02474.0984.031a.27416.27416,0,0,0,.07778.00286.198.198,0,0,0,.132-.06851.20449.20449,0,0,0,.03952-.08248.65393.65393,0,0,0,.06264.137.225.225,0,0,0,.04844.05634.14238.14238,0,0,0,.05977.02684A.01867.01867,0,0,0,6.65609,6.888Z"/><path d="M7.24816,6.48315a.25565.25565,0,0,0-.15635-.054.80706.80706,0,0,1-.12774-.00146.15447.15447,0,0,1,.01252-.045c.00592-.01253-.014-.023-.02149-.01135-.009.014-.01859.02967-.02727.04622l-.01943-.00928A.45173.45173,0,0,1,6.782,6.30265c-.00773-.01006-.02167.00207-.015.01225.01528.02326.0239.04983.039.07328a.28916.28916,0,0,0,.05.06012.20869.20869,0,0,0,.04689.03191.11647.11647,0,0,0,.01965.108A.02433.02433,0,0,0,6.965,6.57542a.29089.29089,0,0,0-.0024-.07575.27867.27867,0,0,0,.04724.00421.30153.30153,0,0,1,.18.02669.32874.32874,0,0,1,.06168.05454.12794.12794,0,0,0,.05932.04751.02483.02483,0,0,0,.03261-.02668C7.34139,6.55659,7.2848,6.51125,7.24816,6.48315Z"/><path d="M7.01784,6.8051a.0205.0205,0,0,0-.02285.032.07222.07222,0,0,1-.02906.1137.27948.27948,0,0,1-.08464.012.55539.55539,0,0,1-.10543.00827.0106.0106,0,0,0-.00211.02109c.05089.00671.097.02916.14925.03132a.15606.15606,0,0,0,.11477-.03562A.10675.10675,0,0,0,7.01784,6.8051Z"/><path d="M8.18781,7.77508c-.25637-.091-.55333.06316-.7972-.08257a.3269.3269,0,0,1-.11426-.12329.36821.36821,0,0,0-.12483-.14435.886.886,0,0,0-.352-.05393.178.178,0,0,1-.16084-.09963.29833.29833,0,0,1,.03954-.21265c.016-.03167-.03615-.059-.05506-.02909a.422.422,0,0,0-.07658.19571A.20975.20975,0,0,0,6.63,7.40669c.10843.0822.252.05576.37784.07228a.20518.20518,0,0,1,.15282.0878.8705.8705,0,0,0,.12013.16767.49246.49246,0,0,0,.358.10307A2.16655,2.16655,0,0,1,8.179,7.813C8.201,7.81758,8.20845,7.7824,8.18781,7.77508Z"/><path d="M8.22052,7.57223c-.05409.01727-.10093-.03933-.11681-.08526-.01547-.04475-.01765-.09386-.03246-.13911A.24617.24617,0,0,0,7.88,7.19177c-.07188-.01893-.16448-.02526-.19112-.10769a.81417.81417,0,0,1-.02-.14039.35924.35924,0,0,0-.04361-.13107.3731.3731,0,0,0-.1011-.11281.19155.19155,0,0,0-.13479-.04593.01145.01145,0,0,0-.007.01837c.02892.03453.07139.05735.1021.09109a.34216.34216,0,0,1,.06968.11758c.0325.09239.00743.19643.05945.2835a.30612.30612,0,0,0,.23122.12016.3007.3007,0,0,1,.11616.03553.21026.21026,0,0,1,.06921.11722c.02743.08269.09588.207.203.16372C8.25246,7.59329,8.23938,7.56621,8.22052,7.57223Z"/><path d="M7.76351,7.645c-.0859-.05964-.19315-.07338-.28271-.12523s-.1289-.14428-.19244-.22119a.367.367,0,0,0-.27763-.127c-.054-.00307-.10874.0009-.16257-.00493-.05268-.00571-.04755-.0604-.05894-.101a.01131.01131,0,0,0-.02011-.0047.12267.12267,0,0,0,.04283.19239.437.437,0,0,0,.13479.0118.71176.71176,0,0,1,.13305.012.306.306,0,0,1,.18478.15545.45943.45943,0,0,0,.18184.17423,1.57264,1.57264,0,0,0,.29315.0836C7.76631,7.69725,7.78929,7.66287,7.76351,7.645Z"/><path d="M7.83416,7.426a.9785.9785,0,0,0-.22888-.13892.36931.36931,0,0,1-.187-.13939c-.04531-.08316.0011-.18171-.02066-.27029A.27423.27423,0,0,0,7.34451,6.768a.32223.32223,0,0,0-.09994-.07188.01171.01171,0,0,0-.01353.0191.26747.26747,0,0,1,.06537.11172A.3018.3018,0,0,1,7.31,6.954a.382.382,0,0,0,.04151.26846.42223.42223,0,0,0,.195.141,1.89723,1.89723,0,0,1,.27238.08406A.01319.01319,0,0,0,7.83416,7.426Z"/><path d="M7.22975,6.88224A.15523.15523,0,0,0,7.14459,6.776a.01213.01213,0,0,0-.01632.01749.203.203,0,0,1,.01333.13314c-.00742.04692-.0182.09412.02527.12616a.02894.02894,0,0,0,.03992-.00683A.25064.25064,0,0,0,7.22975,6.88224Z"/><path d="M6.674,6.465c-.00364-.01726-.00226-.03568-.0066-.05251-.00253-.00979-.014-.01987-.02476-.01348-.04118.0244-.05347.12189.00231.13754a.02714.02714,0,0,0,.03422-.01567A.09775.09775,0,0,0,6.674,6.465Z"/><path d="M5.59038,6.25013c-.04859-.04472-.10886-.07524-.16112-.11566-.05358-.04144-.10348-.08735-.15406-.13233a1.369,1.369,0,0,0-.16753-.13008c-.061-.03924-.12544-.07194-.18905-.10665-.12394-.06762-.25215-.127-.37556-.19553a.03046.03046,0,0,0-.00642-.02238,1.04706,1.04706,0,0,1-.14786-.40324,2.954,2.954,0,0,0-.15832-.44647c-.03089-.07174-.05983-.14427-.09036-.21614-.01395-.03283-.027-.066-.0403-.09915-.0157-.0392-.03935-.07627-.051-.11679A.30442.30442,0,0,1,4.036,4.14824c.00452-.04727.00432-.09444.01026-.14162a2.5827,2.5827,0,0,0,.0268-.2612.36867.36867,0,0,0-.06665-.24969.30634.30634,0,0,0-.15792-.10241c.001-.03738.0015-.07474.00442-.112L3.85309,3.279a.07886.07886,0,0,1-.05642-.02726l-.00055-.00072a1.00608,1.00608,0,0,0-.02136.11286c-.00415.03381-.006.06784-.01105.10156a.70981.70981,0,0,0-.01952.10024c-.00014.01836.0187.03885.03828.02773a.14631.14631,0,0,0,.06265-.123l.00976.008a.55285.55285,0,0,1,.08071.07528.35179.35179,0,0,1,.04626.222c.00167.09248-.00223.18468-.00091.27708.00112.07812.02073.15283.02747.23067a1.05253,1.05253,0,0,0,.00687.11234c.00761.03921.01814.07736.0296.11561A2.10031,2.10031,0,0,0,4.12922,4.73a3.05881,3.05881,0,0,1,.16826.434,1.44671,1.44671,0,0,0,.09157.29667,2.54353,2.54353,0,0,1-.18539-.18675c-.084-.09025-.16464-.183-.24981-.27164-.02106-.05371-.04457-.10635-.06844-.159-.01561-.03444-.03107-.069-.04533-.1041a.568.568,0,0,0,.02175-.12322c.00907-.05956.01739-.11923.02584-.17888s.01381-.11962.01753-.17971c.00387-.06259-.001-.12523.00291-.1879.00081-.01313-.02036-.01964-.02368-.00549-.014.05983-.03629.11715-.0504.17689s-.02682.11986-.03634.1805l-.01779.11641c-.01157-.05976-.01916-.1203-.02513-.18087a2.87746,2.87746,0,0,0-.06388-.48511A.71987.71987,0,0,0,3.59557,3.655a.64341.64341,0,0,0-.17116-.16171c-.01122-.008-.02257.00863-.01225.0173a.5084.5084,0,0,1,.12208.18211,1.217,1.217,0,0,1,.06992.20331,3.30188,3.30188,0,0,1,.059.47539,1.63246,1.63246,0,0,0,.04252.25823,1.5436,1.5436,0,0,0,.0897.2402c.03224.07144.065.14253.09119.21647.02465.06955.04531.14043.06752.21077a1.11475,1.11475,0,0,0,.0936.21984.90967.90967,0,0,0,.06452.10228.4605.4605,0,0,0,.08514.08154c.01529.01209.03332-.00958.02254-.02417a.87518.87518,0,0,1-.10645-.18876c-.02695-.06726-.0467-.13881-.06872-.20794l-.01907-.06128q.03285.04114.0675.08118a1.58248,1.58248,0,0,0,.33582.324.93034.93034,0,0,0,.2101.08308,1.28751,1.28751,0,0,1,.20847.08856,1.83892,1.83892,0,0,1,.34536.26639c.05709.05143.11242.10529.17336.15223a.3321.3321,0,0,0,.21156.08977C5.60726,6.3025,5.60682,6.26526,5.59038,6.25013Z"/><path d="M4.05908,3.3009c-.03882-.01188-.08062-.01074-.12051-.01933a.44758.44758,0,0,1-.12118-.04414.64684.64684,0,0,1-.09311-.06567A.25651.25651,0,0,1,3.6458,3.0832c-.00468-.0109-.02216-.00556-.01777.00576a1.07575,1.07575,0,0,0,.154.20847.48564.48564,0,0,0,.13161.05142.30011.30011,0,0,0,.14862.00717C4.092,3.34744,4.08438,3.30864,4.05908,3.3009Z"/><path d="M4.51574,2.51878a.37962.37962,0,0,0-.208-.27494.78041.78041,0,0,0-.19161-.057,1.09113,1.09113,0,0,0-.20967-.02515.45934.45934,0,0,0-.27977.09091.43634.43634,0,0,0-.08174.0562.623.623,0,0,0-.14945.19125.6296.6296,0,0,0-.06613.2579.46212.46212,0,0,0,.009.13622.39613.39613,0,0,0,.06457.11743c.01091.01635.03319.00173.032-.01432-.003-.03907.00508-.07819.00379-.11745s-.00648-.07775-.00445-.11729a.62754.62754,0,0,1,.05558-.22741.64721.64721,0,0,1,.086-.138l.005-.00548a.44219.44219,0,0,1,.24891-.13893.8933.8933,0,0,1,.35216.03873.34711.34711,0,0,1,.23658.18364.32353.32353,0,0,1,.02843.08718.48653.48653,0,0,0-.13206-.05335.18649.18649,0,0,0-.14436.03523.26887.26887,0,0,0-.08634.11057c-.01335.02833-.02341.03267-.05409.03663a.30031.30031,0,0,1-.09667.00494.01256.01256,0,0,0-.006.02436.30928.30928,0,0,0,.15035.0336c.04847-.01021.06235-.05487.08515-.09305a.15412.15412,0,0,1,.121-.07851.79308.79308,0,0,1,.157.05453l.0109.00086a.32705.32705,0,0,1-.06089.17845c-.01324.01805.00929.04335.02542.02569A.38278.38278,0,0,0,4.51574,2.51878Z"/><path d="M3.89316,2.68923a.12218.12218,0,0,0-.08646-.04138.11294.11294,0,0,0-.056.01761.42346.42346,0,0,0-.09415.03364c-.029.01388-.056.03123-.08519.045a.289.289,0,0,1-.10974.045.00971.00971,0,0,0,.00111.01937c.03252-.00065.0651.008.09753.00526a.2291.2291,0,0,0,.08831-.0321.37794.37794,0,0,0,.04955-.03384.25238.25238,0,0,0-.00028.07493.62536.62536,0,0,0,.03523.14868c.011.02848.05973.02318.05528-.01037a1.43,1.43,0,0,1-.025-.17991.087.087,0,0,1,.02578-.06767.07571.07571,0,0,1,.09114-.00966C3.88991,2.71149,3.90271,2.69738,3.89316,2.68923Z"/><path d="M4.287,2.42406c-.05436-.01372-.10528-.04131-.15982-.0561a.44424.44424,0,0,0-.16868-.01644.50419.50419,0,0,0-.16074.04907.84626.84626,0,0,0-.14625.09842c-.01893.01444-.00605.04993.01905.04009.0488-.01913.09846-.03588.14731-.055a.75008.75008,0,0,1,.15171-.04526.83412.83412,0,0,1,.15321-.00937.75928.75928,0,0,1,.16021.01428C4.29561,2.447,4.29959,2.42723,4.287,2.42406Z"/><path d="M4.32205,2.92422a.1522.1522,0,0,1-.05717-.01829.11212.11212,0,0,0-.05173-.01871.01524.01524,0,0,0-.01353.01978.06841.06841,0,0,0,.05283.03532.284.284,0,0,0,.07076.002C4.33626,2.94421,4.33489,2.92445,4.32205,2.92422Z"/><path d="M4.3462,2.80809a.11918.11918,0,0,0-.084-.03169.30307.30307,0,0,0-.10909.03233.00844.00844,0,0,0,.0052.016.20885.20885,0,0,1,.11134.00091c.02374.00873.03737.03539.06423.0329a.02226.02226,0,0,0,.01966-.017l.00186-.00585A.029.029,0,0,0,4.3462,2.80809Z"/><path d="M4.28,2.99772a.16425.16425,0,0,0-.00089.13951.0151.0151,0,0,0,.02722-.00516.35985.35985,0,0,0-.00314-.06282L4.29906,3.0016A.01014.01014,0,0,0,4.28,2.99772Z"/><path d="M4.161,3.17162A.14943.14943,0,0,0,4.09948,3.144a.19915.19915,0,0,1-.06382-.03376c-.01028-.00912-.02261.0058-.01388.01556a.34606.34606,0,0,0,.05876.05837.08906.08906,0,0,0,.07346.02054A.01975.01975,0,0,0,4.161,3.17162Z"/></svg>
